<?xml version="1.0" encoding="UTF-8"?>
<svg id="Logo_White" data-name="Logo White" xmlns="http://www.w3.org/2000/svg" viewBox="0 0 1080 1080">
  <defs>
    <style>
      .cls-1 {
        fill: #fff;
      }

      .cls-2 {
        fill: #85a5d6;
      }
    </style>
  </defs>
  <g id="Mb6hQi.tif">
    <g>
      <path class="cls-1" d="M1030,114.59v850.82H50V114.59h980ZM781.11,116.81h-485.56l-81.11,139.95h160l-39.35,71.13-162.86,1.09-80.01,138.83h488.89s80-139.95,80-139.95h-160c-.5-3.22.15-5.75,1.24-8.76,2.44-6.77,28.59-52.11,33.27-57.82,1.39-1.7,2.47-3.5,4.81-4.08l161.97-2.47,78.71-137.91ZM943.36,401.17l-78.92,135.46-39.02-67.71,78.08-142.22-79.06-138.79-242.96,419.32.77,7.05,76.67,133.41,4.59-1.38,74.4-129.53,7.61-4.58,37.53,69.46-79.56,140.46,78.75,136.62,5.21-3.65,237.73-413.44-2.08-10.31c-21.09-33.48-39.04-68.9-59.39-102.8-3.69-6.15-11.08-20.87-14.92-25.07-1.83-2.01-2.23-3-5.43-2.31ZM211.11,538.89H52.22l243.33,422.08h161.11l-80-139.95h82.22l81.11,139.95h158.89l-243.33-422.08h-158.89l77.78,138.79c-4.14,6.09-10.23,1.22-16.58,1.05-21.73-.58-43.59.96-65.3-.26l-81.46-139.59Z"/>
      <path class="cls-2" d="M781.11,116.81l-78.71,137.91-161.97,2.47c-2.34.58-3.41,2.38-4.81,4.08-4.68,5.7-30.84,51.05-33.27,57.82-1.08,3.01-1.74,5.55-1.24,8.76h160l-80,139.95H92.22s80.01-138.83,80.01-138.83l162.86-1.09,39.35-71.13h-160l81.11-139.95h485.56Z"/>
      <g>
        <path class="cls-2" d="M943.36,401.17c3.2-.69,3.6.3,5.43,2.31,3.84,4.2,11.23,18.92,14.92,25.07,20.34,33.89,38.3,69.32,59.39,102.8l2.08,10.31-237.73,413.44-5.21,3.65-78.75-136.62,79.56-140.46-37.53-69.46-7.61,4.58-74.4,129.53-4.59,1.38-76.67-133.41-.77-7.05,242.96-419.32,79.06,138.79-78.08,142.22,39.02,67.71,78.92-135.46Z"/>
        <path class="cls-2" d="M211.11,538.89l81.46,139.59c21.7,1.22,43.57-.33,65.3.26,6.35.17,12.44,5.03,16.58-1.05l-77.78-138.79h158.89l243.33,422.08h-158.89l-81.11-139.95h-82.22l80,139.95h-161.11L52.22,538.89h158.89Z"/>
      </g>
    </g>
  </g>
</svg>